<svg width="32" height="32" viewBox="0 0 32 32" fill="none" xmlns="http://www.w3.org/2000/svg">
<path opacity="0.35" d="M23.9997 25.3333H5.33301C3.12367 25.3333 1.33301 23.5427 1.33301 21.3333V8C1.33301 5.79067 3.12367 4 5.33301 4H23.9997C26.209 4 27.9997 5.79067 27.9997 8V21.3333C27.9997 23.5427 26.209 25.3333 23.9997 25.3333Z" fill="#A1A1A1"/>
<path d="M27.8132 6.85352C27.9225 7.21885 27.9999 7.59885 27.9999 8.00018V21.3335C27.9999 23.5429 26.2092 25.3335 23.9999 25.3335H5.33319C4.93186 25.3335 4.55186 25.2562 4.18652 25.1469C4.68252 26.7935 6.19186 28.0002 7.99986 28.0002H26.6665C28.8759 28.0002 30.6665 26.2095 30.6665 24.0002V10.6668C30.6665 8.85885 29.4599 7.34952 27.8132 6.85352Z" fill="#A1A1A1"/>
<path d="M27.9997 8H1.33301V12H27.9997V8Z" fill="#A1A1A1"/>
</svg>
