<svg width="80" height="80" viewBox="0 0 80 80" fill="none" xmlns="http://www.w3.org/2000/svg">
<path opacity="0.35" d="M40.0013 73.3346C58.4108 73.3346 73.3346 58.4108 73.3346 40.0013C73.3346 21.5918 58.4108 6.66797 40.0013 6.66797C21.5918 6.66797 6.66797 21.5918 6.66797 40.0013C6.66797 58.4108 21.5918 73.3346 40.0013 73.3346Z" fill="#247788"/>
<path d="M36.6662 53.3329C35.8129 53.3329 34.9595 53.0062 34.3095 52.3562L24.3095 42.3562C23.0062 41.0529 23.0062 38.9462 24.3095 37.6429C25.6129 36.3395 27.7195 36.3395 29.0229 37.6429L36.6662 45.2862L67.6429 14.3095C68.9462 13.0062 71.0529 13.0062 72.3562 14.3095C73.6595 15.6129 73.6595 17.7195 72.3562 19.0229L39.0229 52.3562C38.3729 53.0062 37.5195 53.3329 36.6662 53.3329Z" fill="#247788"/>
</svg>
