<svg width="28" height="28" viewBox="0 0 28 28" fill="none" xmlns="http://www.w3.org/2000/svg">
    <path d="M5.25 9.33398H7.58333C8.54933 9.33398 9.33333 10.118 9.33333 11.084V22.7507C9.33333 23.7167 8.54933 24.5007 7.58333 24.5007H5.25C4.284 24.5007 3.5 23.7167 3.5 22.7507V11.084C3.5 10.118 4.284 9.33398 5.25 9.33398Z" fill="#E2783C"/>
    <path d="M19.0675 24.5014H11.6673C10.3782 24.5014 9.33398 23.4572 9.33398 22.168V10.6787C9.33398 9.8142 9.65365 8.98003 10.2323 8.3372L13.0965 5.1557L13.5387 2.49337C13.7382 1.29403 15.1662 0.7842 16.0948 1.56937C16.8473 2.2052 17.5007 3.14903 17.5007 4.50937C17.5007 6.5697 16.334 9.3347 16.334 9.3347H22.1673C24.1005 9.3347 25.6673 10.9015 25.6673 12.8347V14.3887C25.6673 14.902 25.5541 15.4095 25.336 15.8739L22.2362 22.4865C21.6598 23.7162 20.4255 24.5014 19.0675 24.5014Z" fill="#F2CBB3"/>
</svg>
