<svg width="28" height="28" viewBox="0 0 28 28" fill="none" xmlns="http://www.w3.org/2000/svg">
<path d="M7.58464 24.4993C9.19547 24.4993 10.5013 23.1935 10.5013 21.5827C10.5013 19.9719 9.19547 18.666 7.58464 18.666C5.9738 18.666 4.66797 19.9719 4.66797 21.5827C4.66797 23.1935 5.9738 24.4993 7.58464 24.4993Z" fill="#E2783C"/>
<path d="M20.4167 24.4993C22.0275 24.4993 23.3333 23.1935 23.3333 21.5827C23.3333 19.9719 22.0275 18.666 20.4167 18.666C18.8058 18.666 17.5 19.9719 17.5 21.5827C17.5 23.1935 18.8058 24.4993 20.4167 24.4993Z" fill="#E2783C"/>
<path opacity="0.35" d="M26.1683 12.891L24.0135 9.29885C23.5912 8.59652 22.8317 8.16602 22.0127 8.16602H17.5C17.5 6.23285 15.9332 4.66602 14 4.66602H8.16667H1.16667C0.522667 4.66602 0 5.18868 0 5.83268C0 6.47668 0.522667 6.99935 1.16667 6.99935V9.33268C0.522667 9.33268 0 9.85535 0 10.4993C0 11.1433 0.522667 11.666 1.16667 11.666V13.9993C0.522667 13.9993 0 14.522 0 15.166C0 15.81 0.522667 16.3327 1.16667 16.3327V18.666C1.16667 20.5992 2.7335 22.166 4.66667 22.166H17.5H23.3333C25.2665 22.166 26.8333 20.5992 26.8333 18.666V15.292C26.8333 14.4462 26.6035 13.6167 26.1683 12.891Z" fill="#E2783C"/>
<path d="M7.0013 7H1.16797V9.33333H7.0013C7.6453 9.33333 8.16797 8.81067 8.16797 8.16667C8.16797 7.52267 7.6453 7 7.0013 7Z" fill="#E2783C"/>
<path d="M4.66797 11.666H1.16797V13.9993H4.66797C5.31197 13.9993 5.83464 13.4767 5.83464 12.8327C5.83464 12.1887 5.31197 11.666 4.66797 11.666Z" fill="#E2783C"/>
<path d="M2.33464 16.334H1.16797V18.6673H2.33464C2.97864 18.6673 3.5013 18.1447 3.5013 17.5007C3.5013 16.8567 2.97864 16.334 2.33464 16.334Z" fill="#E2783C"/>
<path d="M22.778 15.1667H18.6667C18.0227 15.1667 17.5 14.644 17.5 14V11.6667C17.5 11.0227 18.0227 10.5 18.6667 10.5H21.4807C21.9042 10.5 22.295 10.7298 22.5003 11.0997L23.7977 13.433C24.2293 14.2112 23.667 15.1667 22.778 15.1667Z" fill="#E2783C"/>
</svg>
