<svg width="40" height="40" viewBox="0 0 40 40" fill="none" xmlns="http://www.w3.org/2000/svg">
<path d="M10.8333 35.0003C13.1345 35.0003 15 33.1348 15 30.8337C15 28.5325 13.1345 26.667 10.8333 26.667C8.53211 26.667 6.66663 28.5325 6.66663 30.8337C6.66663 33.1348 8.53211 35.0003 10.8333 35.0003Z" fill="#247788"/>
<path d="M29.1667 35.0003C31.4679 35.0003 33.3333 33.1348 33.3333 30.8337C33.3333 28.5325 31.4679 26.667 29.1667 26.667C26.8655 26.667 25 28.5325 25 30.8337C25 33.1348 26.8655 35.0003 29.1667 35.0003Z" fill="#247788"/>
<path opacity="0.35" d="M37.3833 18.417L34.305 13.2853C33.7017 12.282 32.6167 11.667 31.4467 11.667H25C25 8.90533 22.7617 6.66699 20 6.66699H11.6667H1.66667C0.746667 6.66699 0 7.41366 0 8.33366C0 9.25366 0.746667 10.0003 1.66667 10.0003V13.3337C0.746667 13.3337 0 14.0803 0 15.0003C0 15.9203 0.746667 16.667 1.66667 16.667V20.0003C0.746667 20.0003 0 20.747 0 21.667C0 22.587 0.746667 23.3337 1.66667 23.3337V26.667C1.66667 29.4287 3.905 31.667 6.66667 31.667H25H33.3333C36.095 31.667 38.3333 29.4287 38.3333 26.667V21.847C38.3333 20.6387 38.005 19.4537 37.3833 18.417Z" fill="#247788"/>
<path d="M9.99996 10H1.66663V13.3333H9.99996C10.92 13.3333 11.6666 12.5867 11.6666 11.6667C11.6666 10.7467 10.92 10 9.99996 10Z" fill="#247788"/>
<path d="M6.66663 16.667H1.66663V20.0003H6.66663C7.58663 20.0003 8.33329 19.2537 8.33329 18.3337C8.33329 17.4137 7.58663 16.667 6.66663 16.667Z" fill="#247788"/>
<path d="M3.33329 23.333H1.66663V26.6663H3.33329C4.25329 26.6663 4.99996 25.9197 4.99996 24.9997C4.99996 24.0797 4.25329 23.333 3.33329 23.333Z" fill="#247788"/>
<path d="M32.54 21.6667H26.6667C25.7467 21.6667 25 20.92 25 20V16.6667C25 15.7467 25.7467 15 26.6667 15H30.6867C31.2917 15 31.85 15.3283 32.1433 15.8567L33.9967 19.19C34.6133 20.3017 33.81 21.6667 32.54 21.6667Z" fill="#247788"/>
</svg>
