<svg width="56" height="56" viewBox="0 0 56 56" fill="none" xmlns="http://www.w3.org/2000/svg">
<circle cx="28" cy="28" r="28" fill="#FBF7F3"/>
<path opacity="0.35" d="M24.6673 14.666C19.1446 14.666 14.6673 19.1433 14.6673 24.666C14.6673 26.258 15.0486 27.7567 15.7099 29.0927L14.7046 33.1113C14.4753 34.0273 15.3046 34.8567 16.2206 34.6273L20.2393 33.622C21.5766 34.2847 23.0753 34.666 24.6673 34.666C30.1899 34.666 34.6673 30.1887 34.6673 24.666C34.6673 19.1433 30.1899 14.666 24.6673 14.666Z" fill="#E2783C"/>
<path d="M39.8008 33.8008L41.2954 39.7794C41.5248 40.6954 40.6954 41.5248 39.7794 41.2954L33.8008 39.8008L39.8008 33.8008Z" fill="#E2783C"/>
<path d="M34.2357 21.7637C34.513 22.6837 34.6663 23.657 34.6663 24.6663C34.6663 30.189 30.189 34.6663 24.6663 34.6663C23.657 34.6663 22.6837 34.513 21.7637 34.2357C23.0077 38.3423 26.8197 41.333 31.333 41.333C36.8557 41.333 41.333 36.8557 41.333 31.333C41.333 26.8197 38.3423 23.0077 34.2357 21.7637Z" fill="#E2783C"/>
<path d="M29.3333 24.0007H21.3333C20.596 24.0007 20 23.4033 20 22.6673C20 21.9313 20.596 21.334 21.3333 21.334H29.3333C30.0707 21.334 30.6667 21.9313 30.6667 22.6673C30.6667 23.4033 30.0707 24.0007 29.3333 24.0007Z" fill="#E2783C"/>
<path d="M26.6667 29.3327H21.3333C20.596 29.3327 20 28.7353 20 27.9993C20 27.2633 20.596 26.666 21.3333 26.666H26.6667C27.404 26.666 28 27.2633 28 27.9993C28 28.7353 27.404 29.3327 26.6667 29.3327Z" fill="#E2783C"/>
</svg>
