<svg width="56" height="56" viewBox="0 0 56 56" fill="none" xmlns="http://www.w3.org/2000/svg">
<circle cx="28" cy="28" r="28" fill="#FBF7F3"/>
<path opacity="0.35" d="M16.1146 22.0273C16.4106 24.2313 17.5693 29.2966 22.1373 33.8646C26.7053 38.4326 31.7693 39.5913 33.9746 39.8873C35.5719 40.2326 37.3039 39.794 38.5453 38.5526C40.4866 36.6113 33.4546 29.5793 31.5133 31.5206L30.2746 32.7593L23.2426 25.7273L24.4799 24.4886C26.4213 22.5473 19.3893 15.5153 17.4479 17.4566C16.2066 18.698 15.7679 20.43 16.1146 22.0273Z" fill="#E2783C"/>
<path d="M17.4512 17.4522L24.4818 24.4828C26.4192 22.5402 26.4192 19.3962 24.4778 17.4548C22.5392 15.5162 19.3938 15.5148 17.4512 17.4522Z" fill="#E2783C"/>
<path d="M31.5156 31.5166L38.5463 38.5473C40.4836 36.606 40.4836 33.4606 38.5423 31.5193C36.6023 29.5806 33.4583 29.5793 31.5156 31.5166Z" fill="#E2783C"/>
</svg>
