<svg width="32" height="32" viewBox="0 0 32 32" fill="none" xmlns="http://www.w3.org/2000/svg">
<path d="M18.6673 25.3327C19.4037 25.3327 20.0007 24.7357 20.0007 23.9993C20.0007 23.263 19.4037 22.666 18.6673 22.666C17.9309 22.666 17.334 23.263 17.334 23.9993C17.334 24.7357 17.9309 25.3327 18.6673 25.3327Z" fill="#247788"/>
<path d="M13.3333 25.3327C14.0697 25.3327 14.6667 24.7357 14.6667 23.9993C14.6667 23.263 14.0697 22.666 13.3333 22.666C12.597 22.666 12 23.263 12 23.9993C12 24.7357 12.597 25.3327 13.3333 25.3327Z" fill="#247788"/>
<path d="M7.99935 25.3327C8.73573 25.3327 9.33268 24.7357 9.33268 23.9993C9.33268 23.263 8.73573 22.666 7.99935 22.666C7.26297 22.666 6.66602 23.263 6.66602 23.9993C6.66602 24.7357 7.26297 25.3327 7.99935 25.3327Z" fill="#247788"/>
<path d="M7.99935 20.0007C8.73573 20.0007 9.33268 19.4037 9.33268 18.6673C9.33268 17.9309 8.73573 17.334 7.99935 17.334C7.26297 17.334 6.66602 17.9309 6.66602 18.6673C6.66602 19.4037 7.26297 20.0007 7.99935 20.0007Z" fill="#247788"/>
<path d="M13.3333 20.0007C14.0697 20.0007 14.6667 19.4037 14.6667 18.6673C14.6667 17.9309 14.0697 17.334 13.3333 17.334C12.597 17.334 12 17.9309 12 18.6673C12 19.4037 12.597 20.0007 13.3333 20.0007Z" fill="#247788"/>
<path d="M18.6673 20.0007C19.4037 20.0007 20.0007 19.4037 20.0007 18.6673C20.0007 17.9309 19.4037 17.334 18.6673 17.334C17.9309 17.334 17.334 17.9309 17.334 18.6673C17.334 19.4037 17.9309 20.0007 18.6673 20.0007Z" fill="#247788"/>
<path d="M23.9993 20.0007C24.7357 20.0007 25.3327 19.4037 25.3327 18.6673C25.3327 17.9309 24.7357 17.334 23.9993 17.334C23.263 17.334 22.666 17.9309 22.666 18.6673C22.666 19.4037 23.263 20.0007 23.9993 20.0007Z" fill="#247788"/>
<path d="M24.0003 14.6667C24.7367 14.6667 25.3337 14.0697 25.3337 13.3333C25.3337 12.597 24.7367 12 24.0003 12C23.2639 12 22.667 12.597 22.667 13.3333C22.667 14.0697 23.2639 14.6667 24.0003 14.6667Z" fill="#247788"/>
<path d="M18.6663 14.6667C19.4027 14.6667 19.9997 14.0697 19.9997 13.3333C19.9997 12.597 19.4027 12 18.6663 12C17.93 12 17.333 12.597 17.333 13.3333C17.333 14.0697 17.93 14.6667 18.6663 14.6667Z" fill="#247788"/>
<path d="M13.3333 14.6667C14.0697 14.6667 14.6667 14.0697 14.6667 13.3333C14.6667 12.597 14.0697 12 13.3333 12C12.597 12 12 12.597 12 13.3333C12 14.0697 12.597 14.6667 13.3333 14.6667Z" fill="#247788"/>
<path opacity="0.35" d="M12.7707 9.33398C11.7413 11.686 9.39867 13.334 6.66667 13.334C5.71733 13.334 4.81733 13.1287 4 12.7713V24.0007C4 26.21 5.79067 28.0007 8 28.0007H24C26.2093 28.0007 28 26.21 28 24.0007V9.33398H12.7707Z" fill="#247788"/>
<path d="M24 4H12.7707C13.128 4.81733 13.3333 5.71733 13.3333 6.66667C13.3333 7.616 13.128 8.516 12.7707 9.33333C11.7413 11.6853 9.39867 13.3333 6.66667 13.3333C5.71733 13.3333 4.81733 13.128 4 12.7707V15.608C4.84533 15.86 5.74 16 6.66667 16C10.8933 16 14.46 13.188 15.608 9.33333H28V8C28 5.79067 26.2093 4 24 4Z" fill="#247788"/>
<path opacity="0.35" d="M6.66667 13.3333C10.3486 13.3333 13.3333 10.3486 13.3333 6.66667C13.3333 2.98477 10.3486 0 6.66667 0C2.98477 0 0 2.98477 0 6.66667C0 10.3486 2.98477 13.3333 6.66667 13.3333Z" fill="#247788"/>
<path d="M9.50712 8.09238L7.95778 6.15771L7.66712 2.66571C7.62712 2.18571 7.24578 1.79104 6.75112 1.74971C6.19778 1.70304 5.71378 2.11371 5.66712 2.66571L5.33378 6.66571L5.33112 6.70171C5.30578 7.03904 5.44178 7.38171 5.72445 7.60838L8.09378 9.50571C8.45378 9.79371 8.97645 9.80571 9.35112 9.50571C9.78445 9.15904 9.85512 8.52571 9.50712 8.09238Z" fill="#247788"/>
</svg>
