<svg width="28" height="28" viewBox="0 0 28 28" fill="none" xmlns="http://www.w3.org/2000/svg">
<path fill-rule="evenodd" clip-rule="evenodd" d="M26.4684 20.6381L22.5881 16.7578C22.7922 17.9186 22.4026 19.2813 21.4238 20.2601C20.3294 21.3545 18.7532 21.7185 17.5177 21.3311C17.3019 21.7441 16.9823 22.1186 16.5938 22.4301L20.6351 26.4715C21.3164 27.1528 22.4819 26.8308 22.7164 25.8951L23.0874 24.41C23.2496 23.7601 23.7571 23.2526 24.4069 23.0905L25.8921 22.7195C26.8278 22.485 27.1498 21.3195 26.4684 20.6381Z" fill="#E2783C"/>
<path fill-rule="evenodd" clip-rule="evenodd" d="M1.53002 20.6381L5.41035 16.7578C5.20618 17.9186 5.59585 19.2813 6.57468 20.2601C7.66902 21.3545 9.24518 21.7185 10.4807 21.3311C10.6965 21.7441 11.0162 22.1186 11.4047 22.4301L7.36335 26.4715C6.68202 27.1528 5.51652 26.8308 5.28202 25.8951L4.91102 24.41C4.74885 23.7601 4.24135 23.2526 3.59152 23.0905L2.10635 22.7195C1.17068 22.485 0.848684 21.3195 1.53002 20.6381Z" fill="#E2783C"/>
<path fill-rule="evenodd" clip-rule="evenodd" d="M10.4813 4.33832C11.081 3.19148 12.453 2.33398 14 2.33398C15.547 2.33398 16.919 3.19148 17.5187 4.33832C18.753 3.95098 20.3303 4.31498 21.4247 5.40932C22.519 6.50365 22.883 8.07982 22.4957 9.31532C23.6425 9.91498 24.5 11.287 24.5 12.834C24.5 14.381 23.6425 15.753 22.4957 16.3527C22.883 17.587 22.519 19.1643 21.4247 20.2587C20.3303 21.353 18.7542 21.717 17.5187 21.3296C16.919 22.4765 15.547 23.334 14 23.334C12.453 23.334 11.081 22.4765 10.4813 21.3296C9.247 21.717 7.66967 21.353 6.57533 20.2587C5.481 19.1643 5.117 17.5882 5.50433 16.3527C4.3575 15.753 3.5 14.381 3.5 12.834C3.5 11.287 4.3575 9.91498 5.50433 9.31532C5.117 8.08098 5.481 6.50365 6.57533 5.40932C7.66967 4.31498 9.24583 3.95098 10.4813 4.33832Z" fill="#F2CBB3"/>
</svg>
