<svg width="24" height="24" viewBox="0 0 24 24" fill="none" xmlns="http://www.w3.org/2000/svg">
<path fill-rule="evenodd" clip-rule="evenodd" d="M22.6886 17.6893L19.3626 14.3633C19.5376 15.3583 19.2036 16.5263 18.3646 17.3653C17.4266 18.3033 16.0756 18.6153 15.0166 18.2833C14.8316 18.6373 14.5576 18.9583 14.2246 19.2253L17.6886 22.6893C18.2726 23.2733 19.2716 22.9973 19.4726 22.1953L19.7906 20.9223C19.9296 20.3653 20.3646 19.9303 20.9216 19.7913L22.1946 19.4733C22.9966 19.2723 23.2726 18.2733 22.6886 17.6893Z" fill="#247788"/>
<path fill-rule="evenodd" clip-rule="evenodd" d="M1.312 17.6893L4.638 14.3633C4.463 15.3583 4.797 16.5263 5.636 17.3653C6.574 18.3033 7.925 18.6153 8.984 18.2833C9.169 18.6373 9.443 18.9583 9.776 19.2253L6.312 22.6893C5.728 23.2733 4.729 22.9973 4.528 22.1953L4.21 20.9223C4.071 20.3653 3.636 19.9303 3.079 19.7913L1.806 19.4733C1.004 19.2723 0.728001 18.2733 1.312 17.6893Z" fill="#247788"/>
<path opacity="0.35" fill-rule="evenodd" clip-rule="evenodd" d="M8.984 3.718C9.498 2.735 10.674 2 12 2C13.326 2 14.502 2.735 15.016 3.718C16.074 3.386 17.426 3.698 18.364 4.636C19.302 5.574 19.614 6.925 19.282 7.984C20.265 8.498 21 9.674 21 11C21 12.326 20.265 13.502 19.282 14.016C19.614 15.074 19.302 16.426 18.364 17.364C17.426 18.302 16.075 18.614 15.016 18.282C14.502 19.265 13.326 20 12 20C10.674 20 9.498 19.265 8.984 18.282C7.926 18.614 6.574 18.302 5.636 17.364C4.698 16.426 4.386 15.075 4.718 14.016C3.735 13.502 3 12.326 3 11C3 9.674 3.735 8.498 4.718 7.984C4.386 6.926 4.698 5.574 5.636 4.636C6.574 3.698 7.925 3.386 8.984 3.718Z" fill="#247788"/>
</svg>
