<svg width="56" height="56" viewBox="0 0 56 56" fill="none" xmlns="http://www.w3.org/2000/svg">
<circle cx="28" cy="28" r="28" fill="#FBF7F3"/>
<path opacity="0.35" d="M28 14.666C20.636 14.666 14.6667 20.6353 14.6667 27.9993C14.6667 30.122 15.176 32.1207 16.0574 33.902L14.7174 39.2607C14.412 40.4807 15.5174 41.5873 16.7387 41.282L22.0974 39.942C23.8787 40.8234 25.8774 41.3327 28 41.3327C35.364 41.3327 41.3334 35.3633 41.3334 27.9993C41.3334 20.6353 35.364 14.666 28 14.666Z" fill="#E2783C"/>
<path d="M33.8567 29.9563C32.778 28.8777 31.0287 28.8777 29.95 29.9563L29.262 30.6443L25.3553 26.7377L26.0433 26.0497C27.122 24.971 27.122 23.2217 26.0433 22.143C24.9647 21.0643 23.2153 21.0643 22.1367 22.143C21.4473 22.8323 21.2033 23.795 21.3953 24.6817C21.5593 25.907 22.2033 28.7203 24.7407 31.2577C27.278 33.795 30.0913 34.439 31.3167 34.603C32.2033 34.795 33.166 34.551 33.8553 33.8617C34.9353 32.783 34.9353 31.035 33.8567 29.9563Z" fill="#E2783C"/>
</svg>
